<svg width="360" height="184" viewBox="0 0 360 184" xmlns="http://www.w3.org/2000/svg" xmlns:xlink="http://www.w3.org/1999/xlink"><title>Page 1</title><defs><path id="a" d="M0 .273h359.874V184H0V.273z"/><path id="c" d="M0 .273h359.874V184H0V.273z"/></defs><g fill="none" fill-rule="evenodd"><path d="M0 184h298.957V63.895H0V184z" fill="#000"/><g><path d="M359.872 119.25l-.093-.273V.557H63.352l-1.25-.15-.135.15h-.205c-.164.265-.37.515-.645.7a.55.55 0 0 0-.12.077c-.065.108-.113.213-.196.315a.953.953 0 0 1-.276.278c-.027.02-.056.026-.084.05-.012.01-.02.01-.035.024v.254L32.01 33.216v119.95h297.803l28.4-30.96h.05c.02-.024.038-.04.057-.064.083-.108.16-.216.243-.322l.064-.065c.134-.166.25-.34.38-.513.258-.333.528-.658.772-1.005v-.025c.02-.032.045-.057.065-.093 0-.036-.02-.07-.015-.12l.002-.096c.007-.017-.007-.034-.002-.06.014-.105.015-.22.034-.332 0-.018 0-.034.008-.048-.008-.074-.008-.123-.008-.142 0-.024 0-.047.008-.072" fill="#FEFEFE"/><path d="M358.275 119.25l-.093-.273-295.333-.56.45-116.32-1.252-.15-.134.15h-.205c-.165.267-.372.517-.646.702a.55.55 0 0 0-.12.076c-.065.108-.113.213-.196.315a.953.953 0 0 1-.277.28c-.025.02-.054.026-.082.05-.012.01-.02.01-.035.024v.254l-28.398 30.96v116.867h296.26l28.4-29.418h.05c.02-.024.04-.04.058-.065.083-.107.16-.215.244-.322l.063-.064c.134-.167.25-.34.38-.514.258-.333.528-.658.772-1.005v-.025c.02-.032.046-.057.067-.092-.003-.036-.022-.07-.017-.12l.002-.096c.007-.017-.007-.034-.002-.06.014-.105.016-.22.034-.332 0-.018 0-.034.008-.047-.008-.074-.008-.124-.008-.142 0-.025 0-.048.008-.073" fill="#6DC6A9"/><mask id="b" fill="#fff"><use xlink:href="#a"/></mask><path d="M36.45 112.915l22.902-24.072v29.86l-22.902 23.3v-29.088zm0-40.546l22.902-24.074v32.427L36.45 104.798v-32.43zM354.18 5.877V116.77H64.95V82.96l.192-.203-.193-.184v-40.16l.192-.202-.193-.183V5.878h289.23zM36.45 35.235l22.902-24.97v29.91L36.45 64.256v-29.02zm2.108 112.6l25.032-25.468h27.538L66.1 147.834H38.558zm35.393 0l25.024-25.468h29.544l-25.03 25.467H73.95zm37.394 0l25.02-25.468h29.548l-25.03 25.467h-29.538zm37.39 0l25.027-25.468h29.542l-25.025 25.467h-29.543zm37.392 0l25.024-25.468h29.54l-25.025 25.467h-29.54zm37.39 0l25.022-25.468h29.54l-25.026 25.467h-29.537zm37.39 0l25.023-25.468h29.542l-25.026 25.467h-29.54zm37.39 0l25.026-25.468h27.295l-23.366 25.467h-28.953zM59.353 1.99L30.855 33.063v120.375H329.71l28.496-31.07h.054c.016-.024.037-.044.056-.07.078-.1.154-.204.233-.304l.074-.082c.148-.182.28-.378.42-.564.248-.32.504-.63.736-.96v-.027c.02-.03.046-.06.068-.09-.002-.035-.02-.072-.017-.117l.002-.1c.008-.014-.004-.033 0-.057.014-.108.016-.22.034-.335 0-.016 0-.034.008-.047-.008-.072-.008-.125-.008-.145 0-.023 0-.047.008-.07l-.094-.278V.284H62.322l-1.5-.01-1.47 1.716z" fill="#000" mask="url(#b)"/><path d="M99.107 54.417l4.457-5.01c2.85 2.13 6.026 3.267 9.368 3.267 2.15 0 3.307-.705 3.307-1.948 0-1.128-.953-1.75-4.876-2.603-6.146-1.326-10.895-2.954-10.895-8.63 0-5.056 4.254-8.71 11.18-8.71 4.918 0 8.758 1.246 11.897 3.62l-4.008 5.325c-2.64-1.75-5.533-2.682-8.09-2.682-1.94 0-2.89.777-2.89 1.822 0 1.25.988 1.79 4.995 2.644 6.648 1.363 10.776 3.38 10.776 8.558 0 5.56-4.667 8.863-11.688 8.863-5.116 0-9.988-1.52-13.535-4.516M149.933 44.78c2.845 0 4.583-1.397 4.583-3.62 0-2.327-1.738-3.57-4.622-3.57h-3.76v7.19h3.8zm-11.808-13.533h12.383c7.307 0 12.02 3.543 12.02 9.646 0 6.418-5.248 9.797-12.433 9.797h-3.962v7.775h-8.008V31.247zM189.94 47.73L186.72 40l-3.262 7.727h6.48zm-7.02-16.674h7.73l12.3 27.41h-8.59l-2.104-4.86h-11.152l-2.06 4.86h-8.425l12.3-27.41zM215.67 31.247h8.008v20.61h13.994v6.608H215.67V31.247zM268.02 47.73L264.8 40l-3.255 7.727h6.475zM261 31.055h7.72l12.302 27.41h-8.585l-2.106-4.86H259.19l-2.07 4.86h-8.424L261 31.055zM293.75 31.247h8.008v10.187h10.273V31.247h8.012v27.218h-8.01V48.122h-10.274v10.343h-8.01V31.247z" fill="#000"/><mask id="d" fill="#fff"><use xlink:href="#c"/></mask><path d="M98.818 71.95h3.667v-3.846h-3.667v3.846zM98.98 89.92h3.333V73.694H98.98V89.92zM123.098 69.13h-3.34v4.563h-2.053v3.226h2.054v8.347c0 2.978 1.946 4.902 4.96 4.902.993 0 1.83-.186 2.716-.604l.57-.263V85.87l-1.392.625c-.668.3-1.123.414-1.676.414-1.328 0-1.84-.498-1.84-1.776V76.92h4.963v-3.227H123.1V69.13zM142.79 82.4h9.413v-3.535h-9.414V82.4zM173.134 76.667c1.23 0 2.583.454 3.81 1.266l.843.56 1.765-2.817-.793-.532c-1.585-1.068-3.72-1.73-5.572-1.73-3.275 0-5.652 2.07-5.652 4.925 0 3.29 3.15 4.21 5.574 4.92 1.965.556 3.028 1.028 3.028 1.9 0 1.228-1.22 1.778-2.425 1.778-1.546 0-3.053-.56-4.474-1.67l-.8-.616-1.956 2.662.717.592c1.724 1.41 4.19 2.293 6.43 2.293 3.403 0 5.87-2.167 5.87-5.16 0-3.475-3.5-4.467-5.374-4.993-1.83-.53-3.23-1.002-3.23-1.827 0-.94.876-1.553 2.238-1.553M206.44 84.897c-1.277 1.432-2.534 2.1-3.955 2.1-2.714 0-4.84-2.287-4.84-5.194 0-2.866 2.126-5.19 4.732-5.19 1.67 0 2.812.817 4.01 2.05l.71.727 2.28-2.363-.595-.683c-1.763-2.01-3.852-2.985-6.374-2.985-4.524 0-8.21 3.785-8.21 8.443 0 4.74 3.605 8.456 8.21 8.456 3.352 0 5.32-1.81 6.507-3.166l.646-.736-2.462-2.2-.658.74zM231.787 73.36c-1.597 0-2.984.442-4.12 1.313v-7.13h-3.338V89.92h3.338v-9.233c0-2.378 1.65-4.103 3.926-4.103 2.223 0 3.504 1.415 3.504 3.88v9.456h3.338v-9.71c0-4.104-2.672-6.85-6.65-6.85M261.97 86.998c-2.712 0-4.84-2.287-4.84-5.196 0-2.866 2.15-5.19 4.79-5.19 2.665 0 4.838 2.324 4.838 5.19 0 2.82-2.19 5.196-4.788 5.196m0-13.64c-4.644 0-8.283 3.708-8.283 8.444 0 4.742 3.613 8.456 8.232 8.456 4.64 0 8.28-3.714 8.28-8.456 0-4.736-3.614-8.443-8.23-8.443M293.044 86.998c-2.715 0-4.84-2.287-4.84-5.196 0-2.866 2.15-5.19 4.786-5.19 2.67 0 4.84 2.324 4.84 5.19 0 2.82-2.188 5.196-4.786 5.196m0-13.64c-4.643 0-8.283 3.708-8.283 8.444 0 4.742 3.618 8.456 8.23 8.456 4.65 0 8.29-3.714 8.29-8.456 0-4.736-3.617-8.443-8.236-8.443M317 89.92h3.334V67.543H317V89.92z" fill="#000" mask="url(#d)"/></g></g></svg>